<svg width="23" height="23" viewBox="0 0 23 23" fill="none" xmlns="http://www.w3.org/2000/svg">
<path d="M20.6242 8.41915C20.5666 8.24934 20.4604 8.10013 20.319 7.98994C20.1775 7.87975 20.0068 7.81341 19.8281 7.7991L14.5989 7.38359L12.3361 2.37458C12.264 2.21324 12.1468 2.07622 11.9986 1.98003C11.8504 1.88385 11.6775 1.83262 11.5008 1.83252C11.3241 1.83242 11.1511 1.88347 11.0028 1.97949C10.8545 2.07551 10.7371 2.21241 10.6649 2.37366L8.40207 7.38359L3.17292 7.7991C2.99723 7.81302 2.82927 7.87726 2.68913 7.98413C2.54899 8.09101 2.44261 8.236 2.38272 8.40175C2.32282 8.5675 2.31195 8.747 2.3514 8.91877C2.39084 9.09054 2.47894 9.24731 2.60515 9.37032L6.46946 13.1374L5.10278 19.0554C5.06128 19.2345 5.07458 19.422 5.14096 19.5935C5.20733 19.765 5.32371 19.9125 5.475 20.0171C5.62628 20.1216 5.80549 20.1782 5.98937 20.1796C6.17324 20.181 6.35329 20.1271 6.50615 20.0249L11.5005 16.6954L16.4948 20.0249C16.6511 20.1286 16.8353 20.182 17.0228 20.1779C17.2103 20.1738 17.3921 20.1124 17.5436 20.0019C17.6951 19.8914 17.8092 19.7372 17.8705 19.5599C17.9317 19.3827 17.9372 19.1909 17.8863 19.0105L16.2087 13.1402L20.3692 9.396C20.6416 9.15018 20.7416 8.76678 20.6242 8.41915Z" fill="#F3CD03"/>
</svg>
