<svg width="23" height="23" viewBox="0 0 23 23" fill="none" xmlns="http://www.w3.org/2000/svg">
<path d="M21.1125 8.41915C21.0548 8.24934 20.9487 8.10013 20.8072 7.98994C20.6658 7.87975 20.4951 7.81341 20.3163 7.7991L15.0872 7.38359L12.8244 2.37458C12.7523 2.21324 12.6351 2.07622 12.4869 1.98003C12.3387 1.88385 12.1658 1.83262 11.9891 1.83252C11.8124 1.83242 11.6394 1.88347 11.4911 1.97949C11.3428 2.07551 11.2254 2.21241 11.1532 2.37366L8.89035 7.38359L3.6612 7.7991C3.48551 7.81302 3.31755 7.87726 3.17741 7.98413C3.03727 8.09101 2.93089 8.236 2.871 8.40175C2.8111 8.5675 2.80023 8.747 2.83968 8.91877C2.87913 9.09054 2.96722 9.24731 3.09344 9.37032L6.95774 13.1374L5.59106 19.0554C5.54957 19.2345 5.56287 19.422 5.62924 19.5935C5.69561 19.765 5.81199 19.9125 5.96328 20.0171C6.11457 20.1216 6.29377 20.1782 6.47765 20.1796C6.66152 20.181 6.84157 20.1271 6.99443 20.0249L11.9888 16.6954L16.9831 20.0249C17.1393 20.1286 17.3236 20.182 17.5111 20.1779C17.6986 20.1738 17.8803 20.1124 18.0319 20.0019C18.1834 19.8914 18.2975 19.7372 18.3587 19.5599C18.42 19.3827 18.4255 19.1909 18.3746 19.0105L16.6969 13.1402L20.8575 9.396C21.1299 9.15018 21.2299 8.76678 21.1125 8.41915Z" fill="#F3CD03"/>
</svg>
