<svg width="23" height="23" viewBox="0 0 23 23" fill="none" xmlns="http://www.w3.org/2000/svg">
<path d="M21.0969 8.41915C21.0392 8.24934 20.9331 8.10013 20.7916 7.98994C20.6501 7.87975 20.4795 7.81341 20.3007 7.7991L15.0716 7.38359L12.8087 2.37458C12.7367 2.21324 12.6195 2.07622 12.4712 1.98003C12.323 1.88385 12.1501 1.83262 11.9734 1.83252C11.7968 1.83242 11.6238 1.88347 11.4755 1.97949C11.3272 2.07551 11.2098 2.21241 11.1375 2.37366L8.87473 7.38359L3.64558 7.7991C3.46989 7.81302 3.30193 7.87726 3.16179 7.98413C3.02165 8.09101 2.91527 8.236 2.85537 8.40175C2.79548 8.5675 2.7846 8.747 2.82405 8.91877C2.8635 9.09054 2.9516 9.24731 3.07781 9.37032L6.94212 13.1374L5.57544 19.0554C5.53394 19.2345 5.54724 19.422 5.61361 19.5935C5.67999 19.765 5.79637 19.9125 5.94765 20.0171C6.09894 20.1216 6.27815 20.1782 6.46202 20.1796C6.6459 20.181 6.82594 20.1271 6.97881 20.0249L11.9731 16.6954L16.9675 20.0249C17.1237 20.1286 17.308 20.182 17.4955 20.1779C17.683 20.1738 17.8647 20.1124 18.0162 20.0019C18.1678 19.8914 18.2819 19.7372 18.3431 19.5599C18.4044 19.3827 18.4099 19.1909 18.3589 19.0105L16.6813 13.1402L20.8419 9.396C21.1143 9.15018 21.2143 8.76678 21.0969 8.41915Z" fill="#F3CD03"/>
</svg>
