<svg width="23" height="23" viewBox="0 0 23 23" fill="none" xmlns="http://www.w3.org/2000/svg">
<path d="M20.6125 8.41915C20.5548 8.24934 20.4487 8.10013 20.3072 7.98994C20.1658 7.87975 19.9951 7.81341 19.8163 7.7991L14.5872 7.38359L12.3244 2.37458C12.2523 2.21324 12.1351 2.07622 11.9869 1.98003C11.8387 1.88385 11.6658 1.83262 11.4891 1.83252C11.3124 1.83242 11.1394 1.88347 10.9911 1.97949C10.8428 2.07551 10.7254 2.21241 10.6532 2.37366L8.39035 7.38359L3.1612 7.7991C2.98551 7.81302 2.81755 7.87726 2.67741 7.98413C2.53727 8.09101 2.43089 8.236 2.371 8.40175C2.3111 8.5675 2.30023 8.747 2.33968 8.91877C2.37913 9.09054 2.46722 9.24731 2.59344 9.37032L6.45774 13.1374L5.09106 19.0554C5.04957 19.2345 5.06287 19.422 5.12924 19.5935C5.19561 19.765 5.31199 19.9125 5.46328 20.0171C5.61457 20.1216 5.79377 20.1782 5.97765 20.1796C6.16152 20.181 6.34157 20.1271 6.49443 20.0249L11.4888 16.6954L16.4831 20.0249C16.6393 20.1286 16.8236 20.182 17.0111 20.1779C17.1986 20.1738 17.3803 20.1124 17.5319 20.0019C17.6834 19.8914 17.7975 19.7372 17.8587 19.5599C17.92 19.3827 17.9255 19.1909 17.8746 19.0105L16.1969 13.1402L20.3575 9.396C20.6299 9.15018 20.7299 8.76678 20.6125 8.41915Z" fill="#F3CD03"/>
</svg>
