<svg width="23" height="23" viewBox="0 0 23 23" fill="none" xmlns="http://www.w3.org/2000/svg">
<path d="M20.6379 8.41915C20.5802 8.24934 20.4741 8.10013 20.3326 7.98994C20.1911 7.87975 20.0205 7.81341 19.8417 7.7991L14.6126 7.38359L12.3498 2.37458C12.2777 2.21324 12.1605 2.07622 12.0123 1.98003C11.864 1.88385 11.6912 1.83262 11.5145 1.83252C11.3378 1.83242 11.1648 1.88347 11.0165 1.97949C10.8682 2.07551 10.7508 2.21241 10.6786 2.37366L8.41575 7.38359L3.18659 7.7991C3.0109 7.81302 2.84294 7.87726 2.7028 7.98413C2.56267 8.09101 2.45629 8.236 2.39639 8.40175C2.33649 8.5675 2.32562 8.747 2.36507 8.91877C2.40452 9.09054 2.49261 9.24731 2.61883 9.37032L6.48313 13.1374L5.11645 19.0554C5.07496 19.2345 5.08826 19.422 5.15463 19.5935C5.221 19.765 5.33738 19.9125 5.48867 20.0171C5.63996 20.1216 5.81916 20.1782 6.00304 20.1796C6.18691 20.181 6.36696 20.1271 6.51982 20.0249L11.5142 16.6954L16.5085 20.0249C16.6647 20.1286 16.849 20.182 17.0365 20.1779C17.224 20.1738 17.4057 20.1124 17.5573 20.0019C17.7088 19.8914 17.8229 19.7372 17.8841 19.5599C17.9454 19.3827 17.9509 19.1909 17.8999 19.0105L16.2223 13.1402L20.3829 9.396C20.6553 9.15018 20.7553 8.76678 20.6379 8.41915Z" fill="#F3CD03"/>
</svg>
