<svg width="23" height="23" viewBox="0 0 23 23" fill="none" xmlns="http://www.w3.org/2000/svg">
<path d="M20.5969 8.41915C20.5392 8.24934 20.4331 8.10013 20.2916 7.98994C20.1501 7.87975 19.9795 7.81341 19.8007 7.7991L14.5716 7.38359L12.3087 2.37458C12.2367 2.21324 12.1195 2.07622 11.9712 1.98003C11.823 1.88385 11.6501 1.83262 11.4734 1.83252C11.2968 1.83242 11.1238 1.88347 10.9755 1.97949C10.8272 2.07551 10.7098 2.21241 10.6375 2.37366L8.37473 7.38359L3.14558 7.7991C2.96989 7.81302 2.80193 7.87726 2.66179 7.98413C2.52165 8.09101 2.41527 8.236 2.35537 8.40175C2.29548 8.5675 2.2846 8.747 2.32405 8.91877C2.3635 9.09054 2.4516 9.24731 2.57781 9.37032L6.44212 13.1374L5.07544 19.0554C5.03394 19.2345 5.04724 19.422 5.11361 19.5935C5.17999 19.765 5.29637 19.9125 5.44765 20.0171C5.59894 20.1216 5.77815 20.1782 5.96202 20.1796C6.1459 20.181 6.32594 20.1271 6.47881 20.0249L11.4731 16.6954L16.4675 20.0249C16.6237 20.1286 16.808 20.182 16.9955 20.1779C17.183 20.1738 17.3647 20.1124 17.5162 20.0019C17.6678 19.8914 17.7819 19.7372 17.8431 19.5599C17.9044 19.3827 17.9099 19.1909 17.8589 19.0105L16.1813 13.1402L20.3419 9.396C20.6143 9.15018 20.7143 8.76678 20.5969 8.41915Z" fill="#F3CD03"/>
</svg>
