<svg width="24" height="23" viewBox="0 0 24 23" fill="none" xmlns="http://www.w3.org/2000/svg">
<path d="M21.1242 8.41915C21.0666 8.24934 20.9604 8.10013 20.819 7.98994C20.6775 7.87975 20.5068 7.81341 20.3281 7.7991L15.0989 7.38359L12.8361 2.37458C12.764 2.21324 12.6468 2.07622 12.4986 1.98003C12.3504 1.88385 12.1775 1.83262 12.0008 1.83252C11.8241 1.83242 11.6511 1.88347 11.5028 1.97949C11.3545 2.07551 11.2371 2.21241 11.1649 2.37366L8.90207 7.38359L3.67292 7.7991C3.49723 7.81302 3.32927 7.87726 3.18913 7.98413C3.04899 8.09101 2.94261 8.236 2.88272 8.40175C2.82282 8.5675 2.81195 8.747 2.8514 8.91877C2.89084 9.09054 2.97894 9.24731 3.10515 9.37032L6.96946 13.1374L5.60278 19.0554C5.56128 19.2345 5.57458 19.422 5.64096 19.5935C5.70733 19.765 5.82371 19.9125 5.975 20.0171C6.12628 20.1216 6.30549 20.1782 6.48937 20.1796C6.67324 20.181 6.85329 20.1271 7.00615 20.0249L12.0005 16.6954L16.9948 20.0249C17.1511 20.1286 17.3353 20.182 17.5228 20.1779C17.7103 20.1738 17.8921 20.1124 18.0436 20.0019C18.1951 19.8914 18.3092 19.7372 18.3705 19.5599C18.4317 19.3827 18.4372 19.1909 18.3863 19.0105L16.7087 13.1402L20.8692 9.396C21.1416 9.15018 21.2416 8.76678 21.1242 8.41915Z" fill="#F3CD03"/>
</svg>
